<svg xmlns="http://www.w3.org/2000/svg" viewBox="0 0 400 200" width="400" height="200">
  <rect width="400" height="200" fill="#eaf1fb"/>
  <g fill="#e3a83e"><path d="M52 40l4 10 10 4-10 4-4 10-4-10-10-4 10-4z"/><path d="M352 46l3 7 7 3-7 3-3 7-3-7-7-3 7-3z"/><path d="M344 150l3 6 6 3-6 3-3 6-3-6-6-3 6-3z"/></g>
  <!-- Carpeta con la evaluación -->
  <rect x="96" y="34" width="132" height="148" rx="10" fill="#1d3557"/>
  <rect x="108" y="48" width="108" height="124" rx="6" fill="#ffffff"/>
  <rect x="140" y="26" width="44" height="20" rx="6" fill="#a9c8f5"/>
  <g stroke="#a9c8f5" stroke-width="5" stroke-linecap="round">
    <line x1="146" y1="72" x2="204" y2="72"/>
    <line x1="146" y1="94" x2="198" y2="94"/>
    <line x1="146" y1="116" x2="204" y2="116"/>
  </g>
  <g fill="none" stroke="#3e9c86" stroke-width="5" stroke-linecap="round" stroke-linejoin="round">
    <path d="M122 72l6 6 10-12"/>
    <path d="M122 94l6 6 10-12"/>
  </g>
  <rect x="120" y="108" width="16" height="16" rx="3" fill="none" stroke="#e3a83e" stroke-width="4"/>
  <!-- Gráfico de seguimiento -->
  <rect x="246" y="60" width="104" height="82" rx="8" fill="#ffffff" stroke="#a9c8f5" stroke-width="3"/>
  <polyline points="258,126 280,112 300,118 322,92 340,78" fill="none" stroke="#1d3557" stroke-width="5" stroke-linecap="round" stroke-linejoin="round"/>
  <g fill="#e3a83e"><circle cx="258" cy="126" r="5"/><circle cx="280" cy="112" r="5"/><circle cx="300" cy="118" r="5"/><circle cx="322" cy="92" r="5"/><circle cx="340" cy="78" r="5"/></g>
  <!-- Lupa -->
  <circle cx="300" cy="162" r="16" fill="#ffffff" stroke="#1d3557" stroke-width="5"/>
  <line x1="312" y1="174" x2="326" y2="188" stroke="#1d3557" stroke-width="7" stroke-linecap="round"/>
</svg>
